<svg class="w-[120px] h-[120px]" fill="none" height="186" viewBox="0 0 186 186" width="186"
    xmlns="http://www.w3.org/2000/svg">
    <path
        d="M132.395 117.719H75.5161C70.7359 117.719 65.8999 114.13 64.5049 109.554L44.6029 43.9146C43.8031 41.2734 40.7899 39.0414 38.0371 39.0414H22.7107C21.4273 39.0414 20.3857 37.9998 20.3857 36.7164C20.3857 35.433 21.4273 34.3914 22.7107 34.3914H38.0371C42.8173 34.3914 47.6533 37.9812 49.0483 42.5568L53.2891 56.5254H150.437C152.985 56.5254 155.199 57.567 156.519 59.3712C157.84 61.1754 158.156 63.612 157.393 66.03L143.481 109.591C142.03 114.167 137.157 117.719 132.395 117.719ZM54.7027 61.194L68.9503 108.215C69.7501 110.856 72.7447 113.088 75.5161 113.088H132.395C135.166 113.088 138.217 110.856 139.072 108.215L152.985 64.6536C153.301 63.6492 153.246 62.7564 152.799 62.1426C152.353 61.5288 151.534 61.194 150.474 61.194H54.7027Z"
        fill="#002C3C"></path>
    <path
        d="M133.418 151.609C126.034 151.609 120.026 145.601 120.026 138.217C120.026 130.832 126.034 124.825 133.418 124.825C140.802 124.825 146.81 130.832 146.81 138.217C146.81 145.601 140.783 151.609 133.418 151.609ZM133.418 129.475C128.6 129.475 124.676 133.399 124.676 138.217C124.676 143.034 128.6 146.959 133.418 146.959C138.235 146.959 142.16 143.034 142.16 138.217C142.141 133.399 138.217 129.475 133.418 129.475ZM75.516 151.609C68.1318 151.609 62.1426 145.601 62.1426 138.217C62.1426 130.832 68.1504 124.825 75.516 124.825C82.9002 124.825 88.908 130.832 88.908 138.217C88.908 145.601 82.8816 151.609 75.516 151.609ZM75.516 129.475C70.6986 129.475 66.7926 133.399 66.7926 138.217C66.7926 143.034 70.7172 146.959 75.516 146.959C80.3334 146.959 84.258 143.034 84.258 138.217C84.2394 133.399 80.3334 129.475 75.516 129.475Z"
        fill="#002C3C"></path>
    <path
        d="M111.489 106.169C105.853 106.169 101.277 101.593 101.277 95.9574C101.277 90.3216 105.853 85.746 111.489 85.746C117.125 85.746 121.7 90.3216 121.7 95.9574C121.7 101.593 117.125 106.169 111.489 106.169Z"
        fill="#E24A04"></path>
    <path d="M94.9176 66.0536L81.54 79.4292L94.9157 92.8067L108.293 79.4311L94.9176 66.0536Z"
        fill="#002C3C"></path>
</svg>