<svg class="text-green-400" fill="none" height="36" role="img" viewBox="0 0 24 24" width="36"
    xmlns="http://www.w3.org/2000/svg">
    <path clip-rule="evenodd"
        d="M3.5 12a8.5 8.5 0 1 1 8.5 8.5 8.456 8.456 0 0 1-4.542-1.315 1 1 0 0 0-.821-.113l-2.88.86 1.085-2.538a1 1 0 0 0-.07-.92A8.455 8.455 0 0 1 3.5 12ZM12 1.5C6.201 1.5 1.5 6.2 1.5 12c0 1.837.473 3.567 1.305 5.072L1.08 21.106a1 1 0 0 0 1.206 1.351l4.5-1.342A10.457 10.457 0 0 0 12 22.499c5.799 0 10.5-4.7 10.5-10.5C22.5 6.201 17.799 1.5 12 1.5Zm2.293 12.681-1.315.926A9.337 9.337 0 0 1 11 13.584a10.202 10.202 0 0 1-1.624-2.114l.835-.709a1 1 0 0 0 .236-1.231l-1.064-2a1 1 0 0 0-1.54-.283l-.316.275c-.759.662-1.208 1.75-.836 2.852a12.048 12.048 0 0 0 2.895 4.625c1.813 1.813 3.655 2.527 4.733 2.805.868.223 1.689-.076 2.268-.548l.591-.482a1 1 0 0 0-.12-1.634l-1.678-1a1 1 0 0 0-1.088.041h.001Z"
        fill="#00B000" fill-rule="evenodd"></path>
</svg>